<?xml version="1.0" encoding="UTF-8" standalone="no"?>
<!-- Created with Inkscape (http://www.inkscape.org/) -->

<svg
   width="400"
   height="100"
   viewBox="0 0 105.83333 26.458333"
   version="1.1"
   id="svg1"
   xmlns="http://www.w3.org/2000/svg"
   xmlns:svg="http://www.w3.org/2000/svg">
  <defs
     id="defs1" />
  <g
     id="layer1">
    <g
       id="path5"
       style="opacity:1;fill:#ffffff">
      <path
         style="font-size:14.0358px;line-height:1.15;font-family:Outfit;-inkscape-font-specification:Outfit;letter-spacing:0px;word-spacing:0px;baseline-shift:baseline;display:inline;overflow:visible;vector-effect:none;fill:#ffffff;stroke-linejoin:bevel;paint-order:stroke fill markers;enable-background:accumulate;stop-color:#000000;stop-opacity:1"
         d="m 48.3125,7.6894531 c -0.643872,0 -1.246532,0.1202994 -1.789063,0.3691407 -0.537855,0.2414862 -0.986516,0.6079625 -1.3125,1.0800781 l -0.002,0.00195 c -0.32875,0.4813841 -0.484375,1.067507 -0.484375,1.703125 0,0.555876 0.09247,1.052528 0.310547,1.476563 l 0.0059,0.0098 c 0.211363,0.389356 0.494262,0.721183 0.839843,0.97461 l 0.0098,0.0078 c 0.313461,0.219422 0.655577,0.406458 1.025391,0.560547 l 0.01172,0.0039 c 0.341048,0.13263 0.682723,0.259777 1.023438,0.382813 l 0.01172,0.0039 c 0.311589,0.103864 0.593937,0.2251 0.845703,0.359375 l 0.01758,0.0098 c 0.226545,0.109618 0.381239,0.236183 0.49414,0.386718 0.08594,0.114591 0.148438,0.28489 0.148438,0.56836 0,0.297225 -0.07515,0.438781 -0.3125,0.607421 l -0.0039,0.0039 c -0.232417,0.169601 -0.574684,0.27539 -1.078125,0.27539 -0.52453,0 -0.92912,-0.09581 -1.236328,-0.259765 h -0.002 c -0.323699,-0.182307 -0.61801,-0.449656 -0.886718,-0.824219 l -0.804688,-0.06445 -0.896484,0.898437 -0.04102,0.701172 c 0.461535,0.584612 1.002531,1.045356 1.617188,1.363281 0.633356,0.327599 1.375405,0.480469 2.207031,0.480469 1.093708,0 2.030769,-0.270445 2.734375,-0.849609 0.717293,-0.5828 1.09375,-1.447925 1.09375,-2.431641 0,-0.572585 -0.09895,-1.081735 -0.326172,-1.515625 -0.199936,-0.407725 -0.474273,-0.758141 -0.820312,-1.023437 -0.317552,-0.243457 -0.667288,-0.444216 -1.044922,-0.601563 -0.344514,-0.143547 -0.695168,-0.273461 -1.048828,-0.388672 -0.32,-0.115556 -0.609552,-0.237393 -0.869141,-0.367187 -0.226351,-0.113176 -0.393567,-0.242691 -0.519531,-0.378906 -0.07785,-0.09847 -0.128907,-0.222438 -0.128907,-0.453125 0,-0.279564 0.05984,-0.393311 0.244141,-0.527344 l 0.0098,-0.0059 c 0.193787,-0.146809 0.484421,-0.2441411 0.929687,-0.2441411 0.361366,0 0.65083,0.06998 0.894531,0.1953121 l 0.0059,0.002 c 0.265296,0.132648 0.523115,0.335942 0.77539,0.628906 l 0.775391,0.0293 0.898438,-0.8984379 0.04102,-0.7011718 C 51.306737,8.7715486 50.827735,8.3986319 50.261719,8.125 c -5.58e-4,-2.791e-4 -0.0014,2.788e-4 -0.002,0 C 49.675291,7.8331192 49.018054,7.6894531 48.3125,7.6894531 Z m 17.9375,0 c -0.766044,0 -1.490672,0.1441644 -2.158203,0.4355469 -0.651241,0.2791034 -1.232332,0.6770737 -1.728516,1.1835938 -0.489281,0.4996922 -0.869343,1.0913252 -1.136719,1.7597652 -0.269387,0.673469 -0.404296,1.397266 -0.404296,2.160157 0,0.754358 0.135289,1.475918 0.404296,2.148437 0.266997,0.667491 0.645657,1.261644 1.132813,1.769531 l 0.0039,0.0039 c 0.496209,0.506546 1.080168,0.907388 1.738281,1.195312 l 0.0059,0.002 c 0.667214,0.281482 1.393003,0.421875 2.158203,0.421875 0.8181,0 1.570522,-0.143107 2.244141,-0.4375 0.669982,-0.288608 1.260287,-0.694636 1.757812,-1.21289 l -0.0098,-0.744141 -0.912109,-0.898437 -0.767578,0.02539 c -0.257793,0.28904 -0.572323,0.519419 -0.958984,0.697266 -0.367822,0.159966 -0.820209,0.248047 -1.369141,0.248047 -0.452325,0 -0.850293,-0.07814 -1.210938,-0.226563 -0.001,-4.43e-4 -0.0029,4.44e-4 -0.0039,0 -0.363979,-0.159483 -0.671364,-0.376297 -0.939453,-0.660156 -0.268097,-0.283868 -0.478001,-0.61879 -0.632812,-1.015625 -0.14433,-0.394229 -0.220704,-0.82987 -0.220704,-1.316406 0,-0.487238 0.07597,-0.921727 0.220704,-1.316407 2.09e-4,-5.69e-4 -2.1e-4,-0.0014 0,-0.002 0.154749,-0.396106 0.36509,-0.728248 0.632812,-1.011718 0.268457,-0.284249 0.575669,-0.496226 0.939453,-0.646485 l 0.0078,-0.0039 C 65.4025,10.091729 65.799418,10.011719 66.25,10.011719 c 0.510188,0 0.938908,0.08636 1.300781,0.248047 l 0.0039,0.002 c 0.385177,0.168514 0.695944,0.393286 0.953125,0.68164 l 0.769532,0.02149 0.912109,-0.91211 V 9.7402344 l 0.355469,0.3554686 h 2.783203 v 8.003906 l 0.529297,0.529297 h 1.320312 l 0.529297,-0.529297 v -8.003906 h 2.769531 L 79.005859,9.5664063 V 8.359375 L 78.476562,7.8300781 h -7.93164 L 70.015625,8.359375 V 9.1835938 C 69.558755,8.7591845 69.061701,8.386988 68.490234,8.1289063 67.830233,7.8308416 67.077401,7.6894531 66.25,7.6894531 Z m 17.503906,0 c -0.756699,0 -1.476358,0.1388602 -2.142578,0.4199219 l -0.0039,0.00195 C 80.95618,8.3904315 80.377043,8.7864487 79.880859,9.2929688 l -0.0039,0.00391 c -0.485601,0.5062652 -0.870161,1.098447 -1.146484,1.763672 l -0.002,0.0039 c -0.270459,0.665746 -0.402344,1.3875 -0.402344,2.150391 0,0.754359 0.133336,1.475918 0.402344,2.148437 l 0.002,0.0059 c 0.276792,0.666353 0.665926,1.262521 1.160156,1.777343 l 0.0039,0.0039 c 0.496209,0.506547 1.080168,0.907388 1.738281,1.195312 l 0.0059,0.002 c 0.66632,0.281105 1.385879,0.421875 2.142578,0.421875 0.748224,0 1.45957,-0.140038 2.117187,-0.421875 l 0.0039,-0.002 c 0.657422,-0.287621 1.235519,-0.688492 1.722656,-1.195312 l 0.002,-0.002 c 0.495484,-0.506305 0.885309,-1.099252 1.162109,-1.765624 0.279856,-0.673725 0.419922,-1.397335 0.419922,-2.154297 0,-0.76546 -0.139663,-1.493274 -0.419922,-2.167969 C 88.511867,10.393223 88.121252,9.799558 87.625,9.2929688 87.128576,8.7862022 86.543887,8.3900097 85.884766,8.1113281 c -5.81e-4,-2.489e-4 -0.0014,2.487e-4 -0.002,0 C 85.22476,7.8296007 84.509939,7.6894531 83.753906,7.6894531 Z M 8.0585938,7.8300781 7.5292969,8.359375 v 1.2070313 l 0.5292969,0.5292967 h 2.7832032 v 8.003906 l 0.529297,0.529297 h 1.318359 l 0.529297,-0.529297 v -8.003906 h 2.769531 L 16.517578,9.5664063 V 8.359375 L 15.988281,7.8300781 Z m 9.5019532,0 -0.529297,0.5292969 v 9.740234 l 0.529297,0.529297 h 1.320312 l 0.527344,-0.529297 v -3.708984 h 0.08008 l 3.275391,4.042969 0.412109,0.195312 h 1.669922 l 0.138672,-0.292969 0.197266,0.292969 h 1.404296 l 0.490235,-0.332031 2.558594,-6.390625 2.537109,6.388672 0.492187,0.333984 h 1.429688 l 0.490234,-0.728515 -3.972656,-9.7421879 -0.488281,-0.328125 h -0.955078 l -0.490235,0.328125 -3.763672,9.1933589 -2.626953,-3.185546 c 0.230466,-0.0615 0.491159,-0.06606 0.699219,-0.167969 l 0.0078,-0.0039 c 0.535821,-0.273379 0.970622,-0.669821 1.265625,-1.167969 0.305629,-0.50044 0.455078,-1.086304 0.455078,-1.716797 0,-0.615469 -0.152301,-1.1914243 -0.457032,-1.6894531 C 23.963542,8.9235719 23.53163,8.5269894 22.998047,8.2539063 22.453365,7.9657644 21.824154,7.8300781 21.138672,7.8300781 h -2.257813 -0.435547 z m 17.99414,0 -0.529296,0.5292969 v 9.740234 l 0.529296,0.529297 h 1.31836 l 0.529297,-0.529297 v -5.646484 l 4.464843,5.962891 0.423829,0.21289 h 0.927734 l 0.529297,-0.529297 V 8.359375 L 43.21875,7.8300781 H 41.898437 L 41.369141,8.359375 v 5.623047 L 36.904297,8.0410156 36.480469,7.8300781 Z m 20.519532,0 -0.490235,0.328125 -3.986328,9.7402339 0.490235,0.730469 h 1.404296 l 0.490235,-0.332031 2.560547,-6.392578 2.535156,6.390625 0.492187,0.333984 h 1.431641 l 0.490234,-0.728515 -3.972656,-9.7421879 -0.490234,-0.328125 z m 34.416015,0 -0.529297,0.5292969 v 9.740234 l 0.529297,0.529297 h 1.320313 l 0.529297,-0.529297 v -3.708984 h 0.07813 l 3.27539,4.042969 0.41211,0.195312 h 1.669922 l 0.408203,-0.865234 -2.966797,-3.597656 c 0.230465,-0.0615 0.491159,-0.06606 0.699219,-0.167969 l 0.0078,-0.0039 c 0.535822,-0.273379 0.970623,-0.669821 1.265625,-1.167969 0.305469,-0.500169 0.455078,-1.085975 0.455078,-1.716797 0,-0.615809 -0.152463,-1.1916962 -0.457031,-1.6894531 C 96.893229,8.9235719 96.461317,8.5269894 95.927734,8.2539063 95.383199,7.9658421 94.755793,7.8300781 94.070312,7.8300781 H 91.810547 91.375 Z M 48.3125,8.7480469 c 0.566352,0 1.050878,0.1094232 1.476562,0.3222656 l 0.0059,0.00391 c 0.285423,0.1374259 0.471159,0.3412928 0.679687,0.5292968 l -0.158203,0.1582032 c -0.213137,-0.1852037 -0.41118,-0.4041284 -0.652344,-0.5253907 -5.54e-4,-2.85e-4 -0.0014,2.846e-4 -0.002,0 -0.410901,-0.2109417 -0.878129,-0.3125 -1.376953,-0.3125 -0.600463,0 -1.139419,0.1385749 -1.5625,0.4570313 -0.431003,0.3153943 -0.679687,0.8365756 -0.679687,1.3789066 0,0.418273 0.117608,0.822564 0.373047,1.134765 l 0.01758,0.01953 c 0.22867,0.252741 0.512629,0.458463 0.841797,0.623046 0.301842,0.150922 0.630657,0.290237 0.984375,0.417969 l 0.01563,0.0059 c 0.332769,0.107924 0.660874,0.228489 0.984375,0.363281 0.296086,0.123369 0.564713,0.277868 0.808593,0.464844 0.212818,0.163159 0.382935,0.373514 0.519532,0.654296 l 0.0078,0.01563 c 0.125816,0.238383 0.205078,0.575563 0.205078,1.029297 0,0.738009 -0.222696,1.22098 -0.703125,1.611328 l -0.002,0.002 c -0.475025,0.392085 -1.138737,0.609375 -2.064453,0.609375 -0.702954,0 -1.268626,-0.127494 -1.720703,-0.361328 -0.338363,-0.175015 -0.62537,-0.479859 -0.916016,-0.77539 l 0.150391,-0.150391 c 0.25051,0.259083 0.48057,0.551792 0.783203,0.720703 l 0.0078,0.0039 c 0.497342,0.26602 1.084599,0.384766 1.738282,0.384766 0.655259,0 1.237764,-0.144568 1.697265,-0.478516 0.472439,-0.336794 0.753907,-0.885371 0.753907,-1.466796 0,-0.446393 -0.106506,-0.868572 -0.357422,-1.203125 -0.222867,-0.297158 -0.525568,-0.530275 -0.876953,-0.701172 -0.301555,-0.159739 -0.629427,-0.300155 -0.980469,-0.417969 l -0.01367,-0.0059 c -0.324524,-0.117307 -0.650402,-0.239264 -0.974609,-0.365235 -0.300228,-0.125094 -0.570807,-0.272438 -0.816407,-0.443359 -3.89e-4,-2.86e-4 3.89e-4,-0.0017 0,-0.002 -0.213151,-0.156571 -0.386172,-0.355951 -0.529297,-0.617188 -0.118004,-0.230813 -0.195312,-0.553947 -0.195312,-0.988281 0,-0.467762 0.106145,-0.817867 0.300781,-1.1035156 0.216733,-0.3138893 0.49585,-0.5465664 0.875,-0.7167969 l 0.0059,-0.00195 C 47.355107,8.8410648 47.797568,8.7480469 48.3125,8.7480469 Z m 17.9375,0 c 0.707181,0 1.304394,0.1197645 1.804687,0.3457031 C 68.411338,9.254818 68.699874,9.5078842 69,9.7460938 L 68.837891,9.9082031 C 68.56686,9.6855834 68.314925,9.438863 67.982422,9.2929688 c -5.62e-4,-2.512e-4 -0.0014,2.508e-4 -0.002,0 C 67.463187,9.0621696 66.880707,8.953125 66.25,8.953125 c -0.576575,0 -1.123216,0.1059192 -1.623047,0.3222656 -0.49541,0.205286 -0.933953,0.5080783 -1.300781,0.8964844 -0.366617,0.388182 -0.653013,0.848149 -0.853516,1.365234 l -0.0039,0.0078 c -0.191706,0.521873 -0.285156,1.086098 -0.285156,1.683594 0,0.597493 0.09345,1.163671 0.285156,1.685547 l 0.0039,0.0078 c 0.200503,0.517086 0.4869,0.977052 0.853516,1.365234 0.366183,0.387724 0.801621,0.693725 1.294922,0.908203 l 0.0098,0.0039 c 0.499337,0.206253 1.043584,0.30664 1.619141,0.30664 0.665092,0 1.269231,-0.108145 1.798828,-0.339843 l 0.0078,-0.002 c 0.333057,-0.152651 0.586258,-0.401286 0.857421,-0.626953 l 0.152344,0.150391 c -0.30569,0.248186 -0.599285,0.511308 -0.976562,0.673828 h -0.002 c -0.523674,0.229107 -1.125186,0.34961 -1.822266,0.349609 -0.63838,0 -1.215586,-0.114082 -1.746094,-0.33789 -0.535048,-0.235036 -0.996946,-0.5521 -1.396484,-0.958985 l -0.002,-0.002 c -6.4e-4,-6.52e-4 -0.0013,-0.0013 -0.002,-0.002 -0.390604,-0.40822 -0.691277,-0.878581 -0.910157,-1.425781 -0.217566,-0.543917 -0.328125,-1.125354 -0.328125,-1.755859 0,-0.64069 0.110939,-1.224611 0.328125,-1.767578 0.219199,-0.547997 0.519862,-1.013511 0.910157,-1.41211 0.402108,-0.4104854 0.860906,-0.7249863 1.388671,-0.9511717 l 0.0039,-0.00195 C 65.040856,8.8642057 65.61393,8.7480469 66.25,8.7480469 Z m 17.503906,0 c 0.628166,0 1.192417,0.1128769 1.712891,0.3359375 l 0.0039,0.00195 c 0.536938,0.2265205 0.997593,0.5400227 1.398438,0.9492185 0.40204,0.410416 0.715266,0.882528 0.943359,1.431641 0.225031,0.541741 0.337891,1.123598 0.337891,1.761719 0,0.627901 -0.112457,1.205335 -0.337891,1.748047 -0.228133,0.54921 -0.541458,1.023319 -0.943359,1.433593 l -0.0039,0.0039 c -0.39065,0.407275 -0.84601,0.725485 -1.382812,0.960938 -5.76e-4,2.47e-4 -0.0014,-2.47e-4 -0.002,0 -0.520903,0.222962 -1.081973,0.335937 -1.699219,0.335937 -0.6268,0 -1.198092,-0.114674 -1.728516,-0.33789 -0.001,-4.46e-4 -0.0029,4.47e-4 -0.0039,0 -0.534399,-0.234969 -0.995374,-0.552487 -1.394531,-0.958985 l -0.002,-0.002 c -6.4e-4,-6.52e-4 -0.0013,-0.0013 -0.002,-0.002 -0.401606,-0.419294 -0.711765,-0.898023 -0.939454,-1.445312 -3.56e-4,-8.58e-4 -0.0016,-0.0011 -0.002,-0.002 -0.216081,-0.542298 -0.326172,-1.119703 -0.326172,-1.748047 10e-7,-0.639309 0.11098,-1.217013 0.326172,-1.748047 0.228242,-0.549471 0.535539,-1.021796 0.927735,-1.431641 l 0.002,-0.002 c 6.21e-4,-6.49e-4 0.0013,-0.0013 0.002,-0.002 0.400526,-0.4078788 0.857822,-0.7199402 1.382812,-0.9453125 0.531011,-0.2237421 1.102987,-0.3378906 1.730469,-0.3378906 z M 8.5878906,8.8886719 H 15.458984 V 9.0371094 H 12.689453 L 12.160156,9.5664063 V 17.570312 H 11.900391 V 9.5664063 L 11.371094,9.0371094 H 8.5878906 Z m 9.5019534,0 h 0.355468 0.435547 2.257813 c 0.548143,0 0.995701,0.1056193 1.367187,0.3027344 l 0.0078,0.00391 c 0.380325,0.1940435 0.64634,0.4414627 0.83789,0.765625 l 0.0039,0.00781 c 0.199233,0.324678 0.300781,0.6907 0.300781,1.140625 0,0.471469 -0.10328,0.848068 -0.300781,1.169922 l -0.0039,0.0059 c -0.190842,0.322964 -0.455907,0.571901 -0.833984,0.765625 -0.331352,0.161634 -0.723676,0.257423 -1.193359,0.277344 l -0.386719,0.865234 2.787109,3.376953 h -0.296875 l -3.277343,-4.042968 -0.410157,-0.195313 h -0.859375 l -0.529297,0.529297 v 3.708984 h -0.261718 z m 11.433593,0 h 0.242188 l 3.542969,8.6816401 h -0.28711 l -2.892578,-7.289062 -0.982422,-0.002 -2.919922,7.291015 h -0.255859 z m 6.560547,0 h 0.132813 l 5.257812,6.9941411 0.953125,-0.316407 V 8.8886719 h 0.261719 v 8.6816401 h -0.132812 l -5.259766,-7.023437 -0.953125,0.316406 v 6.707031 h -0.259766 z m 20.345703,0 h 0.244141 l 3.541016,8.6816401 h -0.285157 l -2.894531,-7.289062 -0.982422,-0.002 -2.919922,7.291015 h -0.255859 z m 14.644532,0 h 6.873047 V 9.0371094 H 75.177734 L 74.648437,9.5664063 V 17.570312 H 74.386719 V 9.5664063 L 73.857422,9.0371094 h -2.783203 z m 19.945312,0 h 0.355469 0.435547 2.259765 c 0.548143,0 0.993603,0.1055422 1.365235,0.3027344 l 0.0078,0.00391 c 0.380326,0.1940435 0.646341,0.4414627 0.837891,0.765625 l 0.0039,0.00781 c 0.199403,0.324951 0.300781,0.691041 0.300781,1.140625 0,0.471139 -0.103111,0.847794 -0.300781,1.169922 l -0.0039,0.0059 c -0.190842,0.322964 -0.455908,0.571901 -0.833984,0.765625 -0.331353,0.161634 -0.723676,0.257423 -1.19336,0.277344 l -0.386719,0.865234 2.78711,3.376953 h -0.296875 l -3.277344,-4.042968 -0.410156,-0.195313 h -0.859375 l -0.529297,0.529297 v 3.708984 h -0.261719 z m -7.265625,0.064453 c -0.773614,0 -1.491568,0.1810998 -2.111328,0.5507813 l -0.002,0.00195 c -0.602637,0.365887 -1.090124,0.8824336 -1.439453,1.5175786 l -0.002,0.0059 c -0.344242,0.645452 -0.511719,1.383357 -0.511719,2.185547 0,0.597494 0.09271,1.166176 0.283203,1.695312 l 0.0059,0.01172 c 0.199267,0.513898 0.476487,0.971507 0.832032,1.359375 l 0.0098,0.01172 c 0.366147,0.376916 0.802715,0.675518 1.292969,0.888672 l 0.0039,0.002 c 0.508232,0.216267 1.059962,0.322265 1.638672,0.322265 0.781891,0 1.499824,-0.182231 2.113281,-0.554687 l 0.002,-0.002 c 0.609329,-0.37415 1.099288,-0.891108 1.449218,-1.527344 l 0.002,-0.0039 c 0.353714,-0.653835 0.527344,-1.398715 0.527344,-2.203125 0,-0.599806 -0.100518,-1.163186 -0.304687,-1.679688 -0.200326,-0.51571 -0.48341,-0.975541 -0.84961,-1.363281 C 86.326334,9.7832604 85.885902,9.4806192 85.390625,9.2753906 84.8895,9.0584919 84.338682,8.953125 83.753906,8.953125 Z m -64.873047,0.027344 -0.529297,0.5292968 v 3.2421874 l 0.529297,0.529297 h 2.203125 c 0.660433,0 1.254294,-0.176678 1.681641,-0.578125 0.418649,-0.393276 0.628906,-0.958809 0.628906,-1.564453 0,-0.582622 -0.214012,-1.132172 -0.615234,-1.5351564 C 22.363128,9.1763945 21.762479,8.9804688 21.097656,8.9804688 Z m 72.929688,0 -0.529297,0.5292968 v 3.2421874 l 0.529297,0.529297 h 2.203125 c 0.660432,0 1.254293,-0.176677 1.68164,-0.578125 0.418649,-0.393276 0.628907,-0.958809 0.628907,-1.564453 0,-0.582622 -0.214013,-1.132172 -0.615235,-1.5351564 -0.416168,-0.4271207 -1.016817,-0.6230468 -1.68164,-0.6230468 z m -8.056641,1.0312502 c 0.461084,0 0.862435,0.08056 1.220703,0.236328 l 0.0078,0.0039 c 0.363923,0.150316 0.673145,0.362444 0.941406,0.646485 0.269477,0.285328 0.47957,0.619288 0.634766,1.019531 v 0.0039 c 0.150937,0.381315 0.230469,0.808014 0.230468,1.292969 0,0.653885 -0.13571,1.208335 -0.398437,1.695312 -0.267174,0.48577 -0.618006,0.856047 -1.074219,1.136719 -0.434549,0.263833 -0.94081,0.400391 -1.5625,0.400391 -0.449889,0 -0.851785,-0.08074 -1.222656,-0.238282 h -0.002 c -0.367066,-0.160185 -0.678993,-0.375218 -0.947266,-0.65039 -0.258101,-0.283341 -0.462339,-0.6177 -0.617187,-1.015625 -0.144662,-0.40459 -0.21875,-0.843076 -0.21875,-1.328125 0,-0.656812 0.132647,-1.208495 0.386718,-1.685547 2.8e-4,-5.25e-4 -2.79e-4,-0.0014 0,-0.002 0.267258,-0.483547 0.612471,-0.844246 1.054688,-1.113281 7.96e-4,-4.85e-4 0.0012,-0.0015 0.002,-0.002 0.44611,-0.265219 0.954816,-0.40039 1.564453,-0.40039 z m -64.345703,0.02734 h 1.689453 c 0.475146,0 0.743199,0.114445 0.925781,0.302734 l 0.0059,0.0059 c 0.214308,0.214308 0.30664,0.439451 0.30664,0.791016 0,0.386219 -0.09599,0.606097 -0.294921,0.792969 -0.190229,0.178699 -0.475886,0.291015 -0.957032,0.291015 h -1.675781 z m 72.931641,0 h 1.6875 c 0.475145,0 0.743198,0.114445 0.925781,0.302734 l 0.0059,0.0059 c 0.214309,0.214308 0.306641,0.439451 0.306641,0.791016 0,0.386219 -0.09599,0.606097 -0.294922,0.792969 -0.190227,0.178698 -0.475886,0.291015 -0.957031,0.291015 h -1.673828 z"
         id="path6" />
      <path
         style="font-size:14.0358px;line-height:1.15;font-family:Outfit;-inkscape-font-specification:Outfit;letter-spacing:0px;word-spacing:0px;baseline-shift:baseline;display:inline;overflow:visible;vector-effect:none;stroke-linejoin:bevel;paint-order:stroke fill markers;enable-background:accumulate;stop-color:#000000;stop-opacity:1;fill:#ffffff"
         d="m 48.312813,8.2186198 c -0.580146,0 -1.104137,0.1072453 -1.571997,0.3224609 -0.458503,0.2058584 -0.823665,0.5056508 -1.095023,0.8986532 -0.262002,0.3836452 -0.392741,0.8514571 -0.392741,1.4035321 0,0.495931 0.08427,0.907565 0.252698,1.235067 0.177786,0.327502 0.407097,0.594092 0.687813,0.799951 0.280716,0.196501 0.589182,0.365037 0.926041,0.505395 0.33686,0.131001 0.673932,0.257145 1.010792,0.378788 0.336859,0.112287 0.645842,0.243543 0.926558,0.393258 0.290073,0.140358 0.518867,0.322681 0.687296,0.547254 0.16843,0.224572 0.252698,0.519252 0.252698,0.884183 0,0.439789 -0.177727,0.786052 -0.533301,1.038697 -0.346216,0.252644 -0.809432,0.378788 -1.389579,0.378788 -0.589503,0 -1.085405,-0.107246 -1.487764,-0.322461 -0.40236,-0.224573 -0.757814,-0.552455 -1.066602,-0.982886 l -0.898136,0.898653 c 0.421074,0.533361 0.902672,0.940398 1.44539,1.221114 0.542717,0.280716 1.197964,0.420647 1.965254,0.420647 1.010578,0 1.81035,-0.243097 2.399854,-0.729672 0.598861,-0.486574 0.898653,-1.160203 0.898653,-2.021065 0,-0.514646 -0.08886,-0.940582 -0.26665,-1.277441 -0.16843,-0.346217 -0.393145,-0.626594 -0.673861,-0.841809 -0.280716,-0.215216 -0.589699,-0.39346 -0.926559,-0.533818 -0.336859,-0.140358 -0.678527,-0.266502 -1.024743,-0.378788 -0.336859,-0.121644 -0.645326,-0.252383 -0.926042,-0.392741 -0.280716,-0.140358 -0.510026,-0.308894 -0.687813,-0.505396 -0.16843,-0.205858 -0.252698,-0.472449 -0.252698,-0.799951 0,-0.411717 0.154233,-0.729891 0.463021,-0.9544635 0.308788,-0.23393 0.725533,-0.350883 1.249536,-0.350883 0.430431,0 0.80938,0.084268 1.136882,0.2526978 0.336859,0.1684296 0.650437,0.4207177 0.940511,0.7575767 L 51.260437,9.5658244 C 50.942292,9.1634648 50.530659,8.8406952 50.02537,8.597408 49.520081,8.3447636 48.949103,8.2186198 48.312813,8.2186198 Z m 17.937923,0 c -0.70179,0 -1.352441,0.1307393 -1.951302,0.3927409 -0.589503,0.2526444 -1.108898,0.6080987 -1.558044,1.0666015 -0.439788,0.4491458 -0.78094,0.9777318 -1.024227,1.5859498 -0.243287,0.608218 -0.364836,1.263465 -0.364836,1.965255 0,0.692432 0.121549,1.342567 0.364836,1.950785 0.243287,0.608218 0.584439,1.141916 1.024227,1.600419 0.449146,0.458503 0.973136,0.818553 1.571997,1.080554 0.598861,0.252645 1.249512,0.378789 1.951302,0.378789 0.757933,0 1.436157,-0.13074 2.035018,-0.392741 0.608218,-0.262002 1.136804,-0.627164 1.58595,-1.095024 l -0.912089,-0.898136 c -0.308788,0.346216 -0.687736,0.622514 -1.136882,0.828373 -0.449145,0.196501 -0.977732,0.294556 -1.58595,0.294556 -0.514646,0 -0.98757,-0.08886 -1.418001,-0.266651 -0.430431,-0.187144 -0.804267,-0.449139 -1.122412,-0.785998 -0.318145,-0.33686 -0.566354,-0.734706 -0.744141,-1.193209 -0.168429,-0.458503 -0.252697,-0.959 -0.252697,-1.501717 0,-0.542718 0.08427,-1.043215 0.252697,-1.501717 0.177787,-0.458503 0.425996,-0.85635 0.744141,-1.193209 0.318145,-0.336859 0.691981,-0.5942594 1.122412,-0.7720462 0.430431,-0.187144 0.903355,-0.280603 1.418001,-0.280603 0.57079,0 1.075882,0.098054 1.51567,0.2945557 0.449146,0.1965012 0.828094,0.4682045 1.136882,0.8144205 L 69.815894,9.6779622 C 69.366748,9.2288166 68.851948,8.8733623 68.271802,8.6113607 67.691655,8.3493591 67.018027,8.2186198 66.250736,8.2186198 Z m 17.502291,0 c -0.692432,0 -1.337972,0.1261438 -1.936832,0.3787882 -0.589504,0.2526444 -1.108899,0.6080988 -1.558045,1.0666016 -0.439788,0.4585024 -0.786052,0.9916844 -1.038696,1.5999024 -0.243287,0.598861 -0.364836,1.249512 -0.364836,1.951302 0,0.692433 0.121549,1.342567 0.364836,1.950785 0.252644,0.608218 0.603503,1.146512 1.052649,1.614372 0.449145,0.458503 0.973136,0.818553 1.571997,1.080554 0.598861,0.252645 1.244917,0.378789 1.937349,0.378789 0.683076,0 1.319424,-0.126144 1.908928,-0.378789 0.598861,-0.262001 1.117739,-0.622051 1.557527,-1.080554 0.449146,-0.458503 0.800005,-0.992201 1.052649,-1.600419 0.252645,-0.608218 0.379305,-1.258353 0.379305,-1.950785 0,-0.70179 -0.12666,-1.357037 -0.379305,-1.965255 C 88.047909,10.655694 87.69705,10.122512 87.247904,9.6640096 86.798759,9.2055068 86.274768,8.8500524 85.675907,8.597408 85.086404,8.3447636 84.44546,8.2186198 83.753027,8.2186198 Z M 8.0579061,8.3586629 V 9.5658244 H 11.370365 V 18.09967 h 1.319816 V 9.5658244 h 3.29799 V 8.3586629 Z m 9.5022619,0 V 18.09967 h 1.319817 v -4.239017 h 0.859895 l 3.434933,4.239017 h 1.670182 l -3.498494,-4.243151 c 0.531673,-0.02255 1.000564,-0.133653 1.407149,-0.332797 0.458503,-0.23393 0.809362,-0.556699 1.052649,-0.968416 0.252644,-0.411717 0.378788,-0.893315 0.378788,-1.44539 0,-0.53336 -0.126144,-1.006284 -0.378788,-1.4180011 C 23.563012,9.2801981 23.212153,8.9574285 22.75365,8.7234985 22.295147,8.4802113 21.756853,8.3586629 21.139278,8.3586629 h -2.259293 -0.435116 z m 11.608077,0 -3.98632,9.7410071 h 1.403532 l 3.051494,-7.62279 3.026172,7.62279 H 34.09456 L 30.122192,8.3586629 Z m 6.386174,0 V 18.09967 h 1.319299 v -7.23625 l 5.417757,7.23625 h 0.926559 V 8.3586629 H 41.898218 V 15.565458 L 36.480461,8.3586629 Z m 20.520194,0 -3.98632,9.7410071 h 1.403532 l 3.05201,-7.623307 3.025656,7.623307 h 1.431953 L 57.029077,8.3586629 Z m 14.470952,0 v 1.2071615 h 3.312459 V 18.09967 h 1.319299 V 9.5658244 H 78.47583 V 8.3586629 Z m 19.945036,0 V 18.09967 H 91.8099 v -4.239017 h 0.859896 l 3.434932,4.239017 h 1.670182 l -3.498494,-4.243151 c 0.531673,-0.02255 1.000564,-0.133653 1.407149,-0.332797 0.458503,-0.23393 0.809362,-0.556699 1.052649,-0.968416 0.252645,-0.411717 0.379305,-0.893315 0.379305,-1.44539 0,-0.53336 -0.12666,-1.006284 -0.379305,-1.4180011 C 96.492927,9.2801981 96.142068,8.9574285 95.683565,8.7234985 95.225062,8.4802113 94.687285,8.3586629 94.06971,8.3586629 H 91.8099 91.374784 Z m -6.737574,1.1229289 c 0.524004,0 1.001523,0.093459 1.431954,0.280603 0.430431,0.1777868 0.804784,0.4351872 1.122929,0.7720462 0.318145,0.336859 0.565837,0.734706 0.743624,1.193209 0.177787,0.449145 0.26665,0.945046 0.26665,1.487764 0,0.729862 -0.154233,1.379996 -0.46302,1.950785 -0.308788,0.561432 -0.730129,1.00575 -1.263489,1.333252 -0.524003,0.318145 -1.136858,0.477491 -1.838648,0.477491 -0.514646,0 -0.991648,-0.09346 -1.431437,-0.280603 -0.430431,-0.187144 -0.804784,-0.444544 -1.122929,-0.772046 -0.308787,-0.33686 -0.551884,-0.734706 -0.729671,-1.193209 -0.16843,-0.46786 -0.252698,-0.972952 -0.252698,-1.51567 0,-0.729862 0.149638,-1.375401 0.449069,-1.936833 0.308787,-0.561432 0.725016,-1.001154 1.249019,-1.319299 0.53336,-0.3181448 1.146215,-0.4774902 1.838647,-0.4774902 z m -64.873042,0.027905 h 2.217435 c 0.570789,0 1.005917,0.15475 1.305347,0.4635376 0.308788,0.3087876 0.463021,0.6969266 0.463021,1.1647866 0,0.495932 -0.154233,0.889183 -0.463021,1.179257 -0.308788,0.290073 -0.74851,0.435115 -1.319299,0.435115 h -2.203483 z m 72.929915,0 h 2.217436 c 0.570789,0 1.005916,0.15475 1.305346,0.4635376 0.308788,0.3087876 0.463021,0.6969266 0.463021,1.1647866 0,0.495932 -0.154233,0.889183 -0.463021,1.179257 -0.308787,0.290073 -0.74851,0.435115 -1.319299,0.435115 H 91.8099 Z"
         id="path7" />
    </g>
    <path
       id="text1"
       style="font-size:14.0358px;line-height:1.15;font-family:Outfit;-inkscape-font-specification:Outfit;letter-spacing:0px;word-spacing:0px;stroke-width:1.05833333;stroke-dasharray:none;stroke:none;stroke-opacity:1;paint-order:stroke fill markers;stroke-linejoin:bevel;stroke-linecap:butt"
       d="m 48.312813,8.2186198 c -0.580146,0 -1.104137,0.1072453 -1.571997,0.3224609 -0.458503,0.2058584 -0.823665,0.5056508 -1.095023,0.8986532 -0.262002,0.3836452 -0.392741,0.8514571 -0.392741,1.4035321 0,0.495931 0.08427,0.907565 0.252698,1.235067 0.177786,0.327502 0.407097,0.594092 0.687813,0.799951 0.280716,0.196501 0.589182,0.365037 0.926041,0.505395 0.33686,0.131001 0.673932,0.257145 1.010792,0.378788 0.336859,0.112287 0.645842,0.243543 0.926558,0.393258 0.290073,0.140358 0.518867,0.322681 0.687296,0.547254 0.16843,0.224572 0.252698,0.519252 0.252698,0.884183 0,0.439789 -0.177727,0.786052 -0.533301,1.038697 -0.346216,0.252644 -0.809432,0.378788 -1.389579,0.378788 -0.589503,0 -1.085405,-0.107246 -1.487764,-0.322461 -0.40236,-0.224573 -0.757814,-0.552455 -1.066602,-0.982886 l -0.898136,0.898653 c 0.421074,0.533361 0.902672,0.940398 1.44539,1.221114 0.542717,0.280716 1.197964,0.420647 1.965254,0.420647 1.010578,0 1.81035,-0.243097 2.399854,-0.729672 0.598861,-0.486574 0.898653,-1.160203 0.898653,-2.021065 0,-0.514646 -0.08886,-0.940582 -0.26665,-1.277441 -0.16843,-0.346217 -0.393145,-0.626594 -0.673861,-0.841809 -0.280716,-0.215216 -0.589699,-0.39346 -0.926559,-0.533818 -0.336859,-0.140358 -0.678527,-0.266502 -1.024743,-0.378788 -0.336859,-0.121644 -0.645326,-0.252383 -0.926042,-0.392741 -0.280716,-0.140358 -0.510026,-0.308894 -0.687813,-0.505396 -0.16843,-0.205858 -0.252698,-0.472449 -0.252698,-0.799951 0,-0.411717 0.154233,-0.729891 0.463021,-0.9544635 0.308788,-0.23393 0.725533,-0.350883 1.249536,-0.350883 0.430431,0 0.80938,0.084268 1.136882,0.2526978 0.336859,0.1684296 0.650437,0.4207177 0.940511,0.7575767 L 51.260437,9.5658244 C 50.942292,9.1634648 50.530659,8.8406952 50.02537,8.597408 49.520081,8.3447636 48.949103,8.2186198 48.312813,8.2186198 Z m 17.937923,0 c -0.70179,0 -1.352441,0.1307393 -1.951302,0.3927409 -0.589503,0.2526444 -1.108898,0.6080987 -1.558044,1.0666015 -0.439788,0.4491458 -0.78094,0.9777318 -1.024227,1.5859498 -0.243287,0.608218 -0.364836,1.263465 -0.364836,1.965255 0,0.692432 0.121549,1.342567 0.364836,1.950785 0.243287,0.608218 0.584439,1.141916 1.024227,1.600419 0.449146,0.458503 0.973136,0.818553 1.571997,1.080554 0.598861,0.252645 1.249512,0.378789 1.951302,0.378789 0.757933,0 1.436157,-0.13074 2.035018,-0.392741 0.608218,-0.262002 1.136804,-0.627164 1.58595,-1.095024 l -0.912089,-0.898136 c -0.308788,0.346216 -0.687736,0.622514 -1.136882,0.828373 -0.449145,0.196501 -0.977732,0.294556 -1.58595,0.294556 -0.514646,0 -0.98757,-0.08886 -1.418001,-0.266651 -0.430431,-0.187144 -0.804267,-0.449139 -1.122412,-0.785998 -0.318145,-0.33686 -0.566354,-0.734706 -0.744141,-1.193209 -0.168429,-0.458503 -0.252697,-0.959 -0.252697,-1.501717 0,-0.542718 0.08427,-1.043215 0.252697,-1.501717 0.177787,-0.458503 0.425996,-0.85635 0.744141,-1.193209 0.318145,-0.336859 0.691981,-0.5942594 1.122412,-0.7720462 0.430431,-0.187144 0.903355,-0.280603 1.418001,-0.280603 0.57079,0 1.075882,0.098054 1.51567,0.2945557 0.449146,0.1965012 0.828094,0.4682045 1.136882,0.8144205 L 69.815894,9.6779622 C 69.366748,9.2288166 68.851948,8.8733623 68.271802,8.6113607 67.691655,8.3493591 67.018027,8.2186198 66.250736,8.2186198 Z m 17.502291,0 c -0.692432,0 -1.337972,0.1261438 -1.936832,0.3787882 -0.589504,0.2526444 -1.108899,0.6080988 -1.558045,1.0666016 -0.439788,0.4585024 -0.786052,0.9916844 -1.038696,1.5999024 -0.243287,0.598861 -0.364836,1.249512 -0.364836,1.951302 0,0.692433 0.121549,1.342567 0.364836,1.950785 0.252644,0.608218 0.603503,1.146512 1.052649,1.614372 0.449145,0.458503 0.973136,0.818553 1.571997,1.080554 0.598861,0.252645 1.244917,0.378789 1.937349,0.378789 0.683076,0 1.319424,-0.126144 1.908928,-0.378789 0.598861,-0.262001 1.117739,-0.622051 1.557527,-1.080554 0.449146,-0.458503 0.800005,-0.992201 1.052649,-1.600419 0.252645,-0.608218 0.379305,-1.258353 0.379305,-1.950785 0,-0.70179 -0.12666,-1.357037 -0.379305,-1.965255 C 88.047909,10.655694 87.69705,10.122512 87.247904,9.6640096 86.798759,9.2055068 86.274768,8.8500524 85.675907,8.597408 85.086404,8.3447636 84.44546,8.2186198 83.753027,8.2186198 Z M 8.0579061,8.3586629 V 9.5658244 H 11.370365 V 18.09967 h 1.319816 V 9.5658244 h 3.29799 V 8.3586629 Z m 9.5022619,0 V 18.09967 h 1.319817 v -4.239017 h 0.859895 l 3.434933,4.239017 h 1.670182 l -3.498494,-4.243151 c 0.531673,-0.02255 1.000564,-0.133653 1.407149,-0.332797 0.458503,-0.23393 0.809362,-0.556699 1.052649,-0.968416 0.252644,-0.411717 0.378788,-0.893315 0.378788,-1.44539 0,-0.53336 -0.126144,-1.006284 -0.378788,-1.4180011 C 23.563012,9.2801981 23.212153,8.9574285 22.75365,8.7234985 22.295147,8.4802113 21.756853,8.3586629 21.139278,8.3586629 h -2.259293 -0.435116 z m 11.608077,0 -3.98632,9.7410071 h 1.403532 l 3.051494,-7.62279 3.026172,7.62279 H 34.09456 L 30.122192,8.3586629 Z m 6.386174,0 V 18.09967 h 1.319299 v -7.23625 l 5.417757,7.23625 h 0.926559 V 8.3586629 H 41.898218 V 15.565458 L 36.480461,8.3586629 Z m 20.520194,0 -3.98632,9.7410071 h 1.403532 l 3.05201,-7.623307 3.025656,7.623307 h 1.431953 L 57.029077,8.3586629 Z m 14.470952,0 v 1.2071615 h 3.312459 V 18.09967 h 1.319299 V 9.5658244 H 78.47583 V 8.3586629 Z m 19.945036,0 V 18.09967 H 91.8099 v -4.239017 h 0.859896 l 3.434932,4.239017 h 1.670182 l -3.498494,-4.243151 c 0.531673,-0.02255 1.000564,-0.133653 1.407149,-0.332797 0.458503,-0.23393 0.809362,-0.556699 1.052649,-0.968416 0.252645,-0.411717 0.379305,-0.893315 0.379305,-1.44539 0,-0.53336 -0.12666,-1.006284 -0.379305,-1.4180011 C 96.492927,9.2801981 96.142068,8.9574285 95.683565,8.7234985 95.225062,8.4802113 94.687285,8.3586629 94.06971,8.3586629 H 91.8099 91.374784 Z m -6.737574,1.1229289 c 0.524004,0 1.001523,0.093459 1.431954,0.280603 0.430431,0.1777868 0.804784,0.4351872 1.122929,0.7720462 0.318145,0.336859 0.565837,0.734706 0.743624,1.193209 0.177787,0.449145 0.26665,0.945046 0.26665,1.487764 0,0.729862 -0.154233,1.379996 -0.46302,1.950785 -0.308788,0.561432 -0.730129,1.00575 -1.263489,1.333252 -0.524003,0.318145 -1.136858,0.477491 -1.838648,0.477491 -0.514646,0 -0.991648,-0.09346 -1.431437,-0.280603 -0.430431,-0.187144 -0.804784,-0.444544 -1.122929,-0.772046 -0.308787,-0.33686 -0.551884,-0.734706 -0.729671,-1.193209 -0.16843,-0.46786 -0.252698,-0.972952 -0.252698,-1.51567 0,-0.729862 0.149638,-1.375401 0.449069,-1.936833 0.308787,-0.561432 0.725016,-1.001154 1.249019,-1.319299 0.53336,-0.3181448 1.146215,-0.4774902 1.838647,-0.4774902 z m -64.873042,0.027905 h 2.217435 c 0.570789,0 1.005917,0.15475 1.305347,0.4635376 0.308788,0.3087873 0.463021,0.6969263 0.463021,1.1647863 0,0.495932 -0.154233,0.889183 -0.463021,1.179257 -0.308788,0.290073 -0.74851,0.435115 -1.319299,0.435115 h -2.203483 z m 72.929915,0 h 2.217436 c 0.570789,0 1.005916,0.15475 1.305346,0.4635376 0.308788,0.3087873 0.463021,0.6969263 0.463021,1.1647863 0,0.495932 -0.154233,0.889183 -0.463021,1.179257 -0.308787,0.290073 -0.74851,0.435115 -1.319299,0.435115 H 91.8099 Z" />
    <g
       id="g2"
       style="fill:#d45500">
      <path
         id="path1"
         style="font-size:14.0358px;line-height:1.15;font-family:Outfit;-inkscape-font-specification:Outfit;letter-spacing:0px;word-spacing:0px;fill:#d45500;stroke-width:0.264583"
         d="m 8.0579064,22.87199 v -1.207161 h -3.31246 v -3.425115 h -1.319816 v 4.632276 z" />
      <path
         id="path2"
         style="font-size:14.0358px;line-height:1.15;font-family:Outfit;-inkscape-font-specification:Outfit;letter-spacing:0px;word-spacing:0px;fill:#d45500;stroke-width:0.264583"
         d="m 97.77491,3.5863438 v 1.207161 h 3.31246 v 3.425115 h 1.31982 v -4.632276 z" />
    </g>
    <g
       id="g4"
       transform="matrix(-1,0,0,1,105.83282,0)">
      <path
         id="path3"
         style="font-size:14.0358px;line-height:1.15;font-family:Outfit;-inkscape-font-specification:Outfit;letter-spacing:0px;word-spacing:0px;fill:#808080;stroke-width:0.264583"
         d="m 8.0579064,22.87199 v -1.207161 h -3.31246 v -3.425115 h -1.319816 v 4.632276 z" />
      <path
         id="path4"
         style="font-size:14.0358px;line-height:1.15;font-family:Outfit;-inkscape-font-specification:Outfit;letter-spacing:0px;word-spacing:0px;fill:#808080;stroke-width:0.264583"
         d="m 97.77491,3.5863438 v 1.207161 h 3.31246 v 3.425115 h 1.31982 v -4.632276 z" />
    </g>
  </g>
</svg>
