<?xml version="1.0" encoding="UTF-8" standalone="no"?>
<!-- Created with Inkscape (http://www.inkscape.org/) -->

<svg
   width="400"
   height="100"
   viewBox="0 0 105.83333 26.458333"
   version="1.1"
   id="svg1"
   xmlns="http://www.w3.org/2000/svg"
   xmlns:svg="http://www.w3.org/2000/svg">
  <defs
     id="defs1" />
  <g
     id="layer1">
    <path
       id="text1"
       style="font-size:14.0358px;line-height:1.15;font-family:Outfit;-inkscape-font-specification:Outfit;letter-spacing:0px;word-spacing:0px;stroke-width:0.264583"
       d="m 48.312813,8.2186198 c -0.580146,0 -1.104137,0.1072453 -1.571997,0.3224609 -0.458503,0.2058584 -0.823665,0.5056508 -1.095023,0.8986532 -0.262002,0.3836452 -0.392741,0.8514571 -0.392741,1.4035321 0,0.495931 0.08427,0.907565 0.252698,1.235067 0.177786,0.327502 0.407097,0.594092 0.687813,0.799951 0.280716,0.196501 0.589182,0.365037 0.926041,0.505395 0.33686,0.131001 0.673932,0.257145 1.010792,0.378788 0.336859,0.112287 0.645842,0.243543 0.926558,0.393258 0.290073,0.140358 0.518867,0.322681 0.687296,0.547254 0.16843,0.224572 0.252698,0.519252 0.252698,0.884183 0,0.439789 -0.177727,0.786052 -0.533301,1.038697 -0.346216,0.252644 -0.809432,0.378788 -1.389579,0.378788 -0.589503,0 -1.085405,-0.107246 -1.487764,-0.322461 -0.40236,-0.224573 -0.757814,-0.552455 -1.066602,-0.982886 l -0.898136,0.898653 c 0.421074,0.533361 0.902672,0.940398 1.44539,1.221114 0.542717,0.280716 1.197964,0.420647 1.965254,0.420647 1.010578,0 1.81035,-0.243097 2.399854,-0.729672 0.598861,-0.486574 0.898653,-1.160203 0.898653,-2.021065 0,-0.514646 -0.08886,-0.940582 -0.26665,-1.277441 -0.16843,-0.346217 -0.393145,-0.626594 -0.673861,-0.841809 -0.280716,-0.215216 -0.589699,-0.39346 -0.926559,-0.533818 -0.336859,-0.140358 -0.678527,-0.266502 -1.024743,-0.378788 -0.336859,-0.121644 -0.645326,-0.252383 -0.926042,-0.392741 -0.280716,-0.140358 -0.510026,-0.308894 -0.687813,-0.505396 -0.16843,-0.205858 -0.252698,-0.472449 -0.252698,-0.799951 0,-0.411717 0.154233,-0.729891 0.463021,-0.9544635 0.308788,-0.23393 0.725533,-0.350883 1.249536,-0.350883 0.430431,0 0.80938,0.084268 1.136882,0.2526978 0.336859,0.1684296 0.650437,0.4207177 0.940511,0.7575767 L 51.260437,9.5658244 C 50.942292,9.1634648 50.530659,8.8406952 50.02537,8.597408 49.520081,8.3447636 48.949103,8.2186198 48.312813,8.2186198 Z m 17.937923,0 c -0.70179,0 -1.352441,0.1307393 -1.951302,0.3927409 -0.589503,0.2526444 -1.108898,0.6080987 -1.558044,1.0666015 -0.439788,0.4491458 -0.78094,0.9777318 -1.024227,1.5859498 -0.243287,0.608218 -0.364836,1.263465 -0.364836,1.965255 0,0.692432 0.121549,1.342567 0.364836,1.950785 0.243287,0.608218 0.584439,1.141916 1.024227,1.600419 0.449146,0.458503 0.973136,0.818553 1.571997,1.080554 0.598861,0.252645 1.249512,0.378789 1.951302,0.378789 0.757933,0 1.436157,-0.13074 2.035018,-0.392741 0.608218,-0.262002 1.136804,-0.627164 1.58595,-1.095024 l -0.912089,-0.898136 c -0.308788,0.346216 -0.687736,0.622514 -1.136882,0.828373 -0.449145,0.196501 -0.977732,0.294556 -1.58595,0.294556 -0.514646,0 -0.98757,-0.08886 -1.418001,-0.266651 -0.430431,-0.187144 -0.804267,-0.449139 -1.122412,-0.785998 -0.318145,-0.33686 -0.566354,-0.734706 -0.744141,-1.193209 -0.168429,-0.458503 -0.252697,-0.959 -0.252697,-1.501717 0,-0.542718 0.08427,-1.043215 0.252697,-1.501717 0.177787,-0.458503 0.425996,-0.85635 0.744141,-1.193209 0.318145,-0.336859 0.691981,-0.5942594 1.122412,-0.7720462 0.430431,-0.187144 0.903355,-0.280603 1.418001,-0.280603 0.57079,0 1.075882,0.098054 1.51567,0.2945557 0.449146,0.1965012 0.828094,0.4682045 1.136882,0.8144205 L 69.815894,9.6779622 C 69.366748,9.2288166 68.851948,8.8733623 68.271802,8.6113607 67.691655,8.3493591 67.018027,8.2186198 66.250736,8.2186198 Z m 17.502291,0 c -0.692432,0 -1.337972,0.1261438 -1.936832,0.3787882 -0.589504,0.2526444 -1.108899,0.6080988 -1.558045,1.0666016 -0.439788,0.4585024 -0.786052,0.9916844 -1.038696,1.5999024 -0.243287,0.598861 -0.364836,1.249512 -0.364836,1.951302 0,0.692433 0.121549,1.342567 0.364836,1.950785 0.252644,0.608218 0.603503,1.146512 1.052649,1.614372 0.449145,0.458503 0.973136,0.818553 1.571997,1.080554 0.598861,0.252645 1.244917,0.378789 1.937349,0.378789 0.683076,0 1.319424,-0.126144 1.908928,-0.378789 0.598861,-0.262001 1.117739,-0.622051 1.557527,-1.080554 0.449146,-0.458503 0.800005,-0.992201 1.052649,-1.600419 0.252645,-0.608218 0.379305,-1.258353 0.379305,-1.950785 0,-0.70179 -0.12666,-1.357037 -0.379305,-1.965255 C 88.047909,10.655694 87.69705,10.122512 87.247904,9.6640096 86.798759,9.2055068 86.274768,8.8500524 85.675907,8.597408 85.086404,8.3447636 84.44546,8.2186198 83.753027,8.2186198 Z M 8.0579061,8.3586629 V 9.5658244 H 11.370365 V 18.09967 h 1.319816 V 9.5658244 h 3.29799 V 8.3586629 Z m 9.5022619,0 V 18.09967 h 1.319817 v -4.239017 h 0.859895 l 3.434933,4.239017 h 1.670182 l -3.498494,-4.243151 c 0.531673,-0.02255 1.000564,-0.133653 1.407149,-0.332797 0.458503,-0.23393 0.809362,-0.556699 1.052649,-0.968416 0.252644,-0.411717 0.378788,-0.893315 0.378788,-1.44539 0,-0.53336 -0.126144,-1.006284 -0.378788,-1.4180011 C 23.563012,9.2801981 23.212153,8.9574285 22.75365,8.7234985 22.295147,8.4802113 21.756853,8.3586629 21.139278,8.3586629 h -2.259293 -0.435116 z m 11.608077,0 -3.98632,9.7410071 h 1.403532 l 3.051494,-7.62279 3.026172,7.62279 H 34.09456 L 30.122192,8.3586629 Z m 6.386174,0 V 18.09967 h 1.319299 v -7.23625 l 5.417757,7.23625 h 0.926559 V 8.3586629 H 41.898218 V 15.565458 L 36.480461,8.3586629 Z m 20.520194,0 -3.98632,9.7410071 h 1.403532 l 3.05201,-7.623307 3.025656,7.623307 h 1.431953 L 57.029077,8.3586629 Z m 14.470952,0 v 1.2071615 h 3.312459 V 18.09967 h 1.319299 V 9.5658244 H 78.47583 V 8.3586629 Z m 19.945036,0 V 18.09967 H 91.8099 v -4.239017 h 0.859896 l 3.434932,4.239017 h 1.670182 l -3.498494,-4.243151 c 0.531673,-0.02255 1.000564,-0.133653 1.407149,-0.332797 0.458503,-0.23393 0.809362,-0.556699 1.052649,-0.968416 0.252645,-0.411717 0.379305,-0.893315 0.379305,-1.44539 0,-0.53336 -0.12666,-1.006284 -0.379305,-1.4180011 C 96.492927,9.2801981 96.142068,8.9574285 95.683565,8.7234985 95.225062,8.4802113 94.687285,8.3586629 94.06971,8.3586629 H 91.8099 91.374784 Z m -6.737574,1.1229289 c 0.524004,0 1.001523,0.093459 1.431954,0.280603 0.430431,0.1777868 0.804784,0.4351872 1.122929,0.7720462 0.318145,0.336859 0.565837,0.734706 0.743624,1.193209 0.177787,0.449145 0.26665,0.945046 0.26665,1.487764 0,0.729862 -0.154233,1.379996 -0.46302,1.950785 -0.308788,0.561432 -0.730129,1.00575 -1.263489,1.333252 -0.524003,0.318145 -1.136858,0.477491 -1.838648,0.477491 -0.514646,0 -0.991648,-0.09346 -1.431437,-0.280603 -0.430431,-0.187144 -0.804784,-0.444544 -1.122929,-0.772046 -0.308787,-0.33686 -0.551884,-0.734706 -0.729671,-1.193209 -0.16843,-0.46786 -0.252698,-0.972952 -0.252698,-1.51567 0,-0.729862 0.149638,-1.375401 0.449069,-1.936833 0.308787,-0.561432 0.725016,-1.001154 1.249019,-1.319299 0.53336,-0.3181448 1.146215,-0.4774902 1.838647,-0.4774902 z m -64.873042,0.027905 h 2.217435 c 0.570789,0 1.005917,0.15475 1.305347,0.4635376 0.308788,0.3087873 0.463021,0.6969263 0.463021,1.1647863 0,0.495932 -0.154233,0.889183 -0.463021,1.179257 -0.308788,0.290073 -0.74851,0.435115 -1.319299,0.435115 h -2.203483 z m 72.929915,0 h 2.217436 c 0.570789,0 1.005916,0.15475 1.305346,0.4635376 0.308788,0.3087873 0.463021,0.6969263 0.463021,1.1647863 0,0.495932 -0.154233,0.889183 -0.463021,1.179257 -0.308787,0.290073 -0.74851,0.435115 -1.319299,0.435115 H 91.8099 Z" />
    <g
       id="g2"
       style="fill:#d45500">
      <path
         id="path1"
         style="font-size:14.0358px;line-height:1.15;font-family:Outfit;-inkscape-font-specification:Outfit;letter-spacing:0px;word-spacing:0px;fill:#d45500;stroke-width:0.264583"
         d="m 8.0579064,22.87199 v -1.207161 h -3.31246 v -3.425115 h -1.319816 v 4.632276 z" />
      <path
         id="path2"
         style="font-size:14.0358px;line-height:1.15;font-family:Outfit;-inkscape-font-specification:Outfit;letter-spacing:0px;word-spacing:0px;fill:#d45500;stroke-width:0.264583"
         d="m 97.77491,3.5863438 v 1.207161 h 3.31246 v 3.425115 h 1.31982 v -4.632276 z" />
    </g>
    <g
       id="g4"
       transform="matrix(-1,0,0,1,105.83282,0)">
      <path
         id="path3"
         style="font-size:14.0358px;line-height:1.15;font-family:Outfit;-inkscape-font-specification:Outfit;letter-spacing:0px;word-spacing:0px;fill:#808080;stroke-width:0.264583"
         d="m 8.0579064,22.87199 v -1.207161 h -3.31246 v -3.425115 h -1.319816 v 4.632276 z" />
      <path
         id="path4"
         style="font-size:14.0358px;line-height:1.15;font-family:Outfit;-inkscape-font-specification:Outfit;letter-spacing:0px;word-spacing:0px;fill:#808080;stroke-width:0.264583"
         d="m 97.77491,3.5863438 v 1.207161 h 3.31246 v 3.425115 h 1.31982 v -4.632276 z" />
    </g>
  </g>
</svg>
